<svg width="36" height="36" viewBox="0 0 36 36" fill="none" xmlns="http://www.w3.org/2000/svg">
<path fill-rule="evenodd" clip-rule="evenodd" d="M16.23 31.23C15.7606 31.6994 15.4968 32.3361 15.4968 33C15.4968 33.6639 15.7606 34.3006 16.23 34.77C16.6994 35.2394 17.3361 35.5031 18 35.5031C18.6639 35.5031 19.3006 35.2394 19.77 34.77L34.77 19.77C35.0028 19.5378 35.1875 19.2619 35.3136 18.9582C35.4396 18.6544 35.5045 18.3288 35.5045 18C35.5045 17.6711 35.4396 17.3455 35.3136 17.0418C35.1875 16.7381 35.0028 16.4622 34.77 16.23L19.77 1.22998C19.5376 0.997545 19.2616 0.813162 18.9579 0.687366C18.6542 0.561571 18.3287 0.496826 18 0.496826C17.6713 0.496826 17.3458 0.561571 17.0421 0.687366C16.7384 0.813162 16.4624 0.997545 16.23 1.22998C15.9976 1.46242 15.8132 1.73837 15.6874 2.04207C15.5616 2.34576 15.4968 2.67127 15.4968 2.99998C15.4968 3.3287 15.5616 3.65421 15.6874 3.9579C15.8132 4.2616 15.9976 4.53755 16.23 4.76999L26.965 15.5H3C2.33696 15.5 1.70107 15.7634 1.23223 16.2322C0.763392 16.7011 0.5 17.3369 0.5 18C0.5 18.663 0.763392 19.2989 1.23223 19.7678C1.70107 20.2366 2.33696 20.5 3 20.5H26.965L16.23 31.23Z" fill="white"/>
</svg>
