<svg width="36" height="36" viewBox="0 0 36 36" fill="none" xmlns="http://www.w3.org/2000/svg">
<path fill-rule="evenodd" clip-rule="evenodd" d="M19.7745 4.27319C20.244 3.80376 20.5077 3.16707 20.5077 2.50319C20.5077 1.83931 20.244 1.20262 19.7745 0.733187C19.3051 0.263754 18.6684 2.90507e-05 18.0045 2.89877e-05C17.3406 2.89247e-05 16.704 0.263754 16.2345 0.733187L1.23452 15.7332C1.0017 15.9654 0.81699 16.2413 0.690958 16.545C0.564925 16.8487 0.500051 17.1743 0.500051 17.5032C0.500051 17.832 0.564925 18.1576 0.690958 18.4614C0.81699 18.7651 1.0017 19.041 1.23452 19.2732L16.2345 34.2732C16.467 34.5056 16.7429 34.69 17.0466 34.8158C17.3503 34.9416 17.6758 35.0063 18.0045 35.0063C18.3332 35.0063 18.6587 34.9416 18.9624 34.8158C19.2661 34.69 19.5421 34.5056 19.7745 34.2732C20.007 34.0407 20.1913 33.7648 20.3171 33.4611C20.4429 33.1574 20.5077 32.8319 20.5077 32.5032C20.5077 32.1745 20.4429 31.849 20.3171 31.5453C20.1913 31.2416 20.007 30.9656 19.7745 30.7332L9.03952 20.0032L33.0045 20.0032C33.6676 20.0032 34.3034 19.7398 34.7723 19.271C35.2411 18.8021 35.5045 18.1662 35.5045 17.5032C35.5045 16.8401 35.2411 16.2043 34.7723 15.7354C34.3034 15.2666 33.6676 15.0032 33.0045 15.0032L9.03952 15.0032L19.7745 4.27319Z" fill="white"/>
</svg>
